<?xml version="1.0" standalone="no"?>
<!DOCTYPE svg PUBLIC "-//W3C//DTD SVG 20010904//EN"
 "http://www.w3.org/TR/2001/REC-SVG-20010904/DTD/svg10.dtd">
<svg version="1.0" xmlns="http://www.w3.org/2000/svg"
 width="150.000000pt" height="150.000000pt" viewBox="0 0 150.000000 150.000000"
 preserveAspectRatio="xMidYMid meet">
<metadata>
Created by potrace 1.11, written by Peter Selinger 2001-2013
</metadata>
<g transform="translate(0.000000,150.000000) scale(0.100000,-0.100000)"
fill="#000000" stroke="none">
<path d="M774 1367 c-8 -5 -27 -11 -42 -13 -37 -6 -65 -41 -86 -106 -17 -54
-18 -55 -73 -72 -67 -22 -163 -36 -163 -25 0 8 -33 4 -49 -6 -5 -3 -20 -1 -33
4 -13 5 -31 5 -39 1 -8 -5 -33 -11 -56 -13 -22 -3 -60 -14 -85 -24 -39 -18
-46 -18 -66 -5 -12 8 -29 12 -37 8 -17 -6 -21 -61 -5 -71 6 -4 4 -18 -7 -38
-23 -46 -25 -74 -28 -470 -2 -282 1 -361 11 -371 10 -11 140 -13 651 -11 402
2 647 6 663 13 35 14 79 63 89 100 5 17 9 152 9 299 0 152 4 279 9 293 6 14 8
30 6 37 -2 6 6 13 18 15 12 2 27 10 32 20 15 23 -6 45 -54 58 -43 12 -55 34
-39 74 19 50 19 49 -123 100 -70 25 -96 30 -109 22 -22 -13 -23 -12 -52 68
-24 65 -47 95 -73 96 -6 0 -24 5 -40 11 -33 13 -208 18 -229 6z m-704 -277 c0
-5 -4 -10 -10 -10 -5 0 -10 5 -10 10 0 6 5 10 10 10 6 0 10 -4 10 -10z m1410
-145 c0 -8 -4 -15 -10 -15 -5 0 -10 7 -10 15 0 8 5 15 10 15 6 0 10 -7 10 -15z"/>
</g>
</svg>
