<?xml version="1.0" standalone="no"?>
<!DOCTYPE svg PUBLIC "-//W3C//DTD SVG 20010904//EN"
 "http://www.w3.org/TR/2001/REC-SVG-20010904/DTD/svg10.dtd">
<svg version="1.0" xmlns="http://www.w3.org/2000/svg"
 width="240.000000pt" height="240.000000pt" viewBox="0 0 240.000000 240.000000"
 preserveAspectRatio="xMidYMid meet">
<metadata>
Created by potrace 1.11, written by Peter Selinger 2001-2013
</metadata>
<g transform="translate(0.000000,240.000000) scale(0.100000,-0.100000)"
fill="#000000" stroke="none">
<path d="M985 1951 c-110 -65 -292 -171 -405 -236 -280 -162 -255 -140 -254
-221 l0 -69 55 -5 54 -5 1 -480 c0 -264 -3 -485 -7 -491 -5 -6 -29 -9 -54 -7
-38 3 -45 1 -46 -14 0 -10 -1 -35 -2 -56 -1 -20 3 -37 8 -37 17 -1 1381 -1
1565 -1 l175 1 -2 42 c0 24 -2 49 -2 56 -1 9 -15 12 -51 9 -29 -2 -51 1 -53 7
-2 6 -3 227 -3 491 l1 480 55 3 55 3 -2 57 c-1 31 -2 66 -2 77 -1 11 -11 25
-24 31 -12 6 -203 115 -425 243 -221 128 -410 234 -420 236 -9 2 -107 -49
-217 -114z m359 -87 c72 -42 149 -87 171 -99 22 -13 123 -71 224 -129 l185
-106 -724 0 -724 0 284 164 c157 90 317 182 355 205 39 22 76 41 84 41 8 0 73
-34 145 -76z m-580 -927 c1 -264 -2 -484 -6 -489 -3 -7 -48 -11 -107 -12 -81
-1 -101 2 -103 14 -3 13 -2 943 1 963 0 4 49 6 108 5 l107 -3 0 -478z m763 -3
c0 -476 0 -486 -20 -493 -11 -4 -29 -6 -41 -5 -11 1 -27 3 -33 3 -10 1 -13 51
-13 215 0 162 -3 215 -12 218 -11 3 -353 2 -411 -1 -17 -1 -18 -15 -15 -216 2
-167 0 -215 -9 -216 -17 -1 -80 -1 -92 0 -5 1 -9 211 -8 491 l0 490 327 -1
327 0 0 -485z m328 -6 c0 -428 -2 -488 -15 -489 -56 -3 -188 -1 -196 3 -7 5
-11 864 -5 966 1 10 26 12 108 10 l108 -3 0 -487z"/>
</g>
</svg>
